<?xml version="1.0" encoding="UTF-8"?>
<svg width="32px" height="32px" viewBox="0 0 32 32" version="1.1" xmlns="http://www.w3.org/2000/svg" xmlns:xlink="http://www.w3.org/1999/xlink">
    <title>C7A3ADD7-642F-4698-B06B-E24A7CFABD44@1.5x</title>
    <g id="▫️-Simular" stroke="none" stroke-width="1" fill="none" fill-rule="evenodd">
        <g id="N_Simular_Desktop" transform="translate(-1011.000000, -1823.000000)" fill="#FFFFFF">
            <g id="Footer/Desktop/Default" transform="translate(-1.000000, 1669.000000)">
                <g id="Group-3" transform="translate(944.000000, 124.000000)">
                    <g id="Group-14" transform="translate(68.000000, 30.000000)">
                        <path d="M31.6678175,15.8965895 C31.6678175,7.21167719 24.6289404,0.172238596 15.9434667,0.172238596 C7.25855439,0.172238596 0.219115789,7.21167719 0.219115789,15.8965895 C0.219115789,24.5815018 7.25855439,31.6209404 15.9434667,31.6209404 C16.0355368,31.6209404 16.127607,31.6209404 16.2196772,31.6147649 L16.2196772,19.3795368 L12.8417123,19.3795368 L12.8417123,15.4418526 L16.2196772,15.4418526 L16.2196772,12.5427649 C16.2196772,9.18332632 18.271607,7.35258947 21.2695018,7.35258947 C22.7061333,7.35258947 23.9406596,7.45701053 24.2971509,7.50641404 L24.2971509,11.0196772 L22.2334316,11.0196772 C20.6059228,11.0196772 20.2864842,11.7932912 20.2864842,12.9301333 L20.2864842,15.4362386 L24.1865544,15.4362386 L23.6768,19.3733614 L20.2864842,19.3733614 L20.2864842,31.0123789 C26.8588351,29.127186 31.6678175,23.0769404 31.6678175,15.8965895" id="Fill-12"></path>
                    </g>
                </g>
            </g>
        </g>
    </g>
</svg>