<?xml version="1.0" encoding="UTF-8"?>
<svg width="33px" height="32px" viewBox="0 0 33 32" version="1.1" xmlns="http://www.w3.org/2000/svg" xmlns:xlink="http://www.w3.org/1999/xlink">
    <title>B1FF9833-5820-4468-9D04-B69A2D040609@1.5x</title>
    <defs>
        <polygon id="path-1" points="0 0.551747368 31.4485333 0.551747368 31.4485333 31.9998877 0 31.9998877"></polygon>
    </defs>
    <g id="▫️-Simular" stroke="none" stroke-width="1" fill="none" fill-rule="evenodd">
        <g id="N_Simular_Desktop" transform="translate(-940.000000, -1991.000000)">
            <g id="Footer/Desktop/Default" transform="translate(-1.000000, 1669.000000)">
                <g id="Group-4" transform="translate(941.000000, 292.000000)">
                    <g id="Icono/32/Whatsapp" transform="translate(0.000000, 30.000000)">
                        <g id="Group" transform="translate(0.500000, 0.000000)">
                            <g id="Group-9">
                                <mask id="mask-2" fill="white">
                                    <use xlink:href="#path-1"></use>
                                </mask>
                                <g id="Clip-8"></g>
                                <path d="M16.0576561,25.4309053 C16.0576561,25.4309053 16.0576561,25.4309053 16.0576561,25.4309053 L16.0537263,25.4309053 C14.4784281,25.4303439 12.9306386,25.0351158 11.5563228,24.2856421 L6.56712982,25.5942737 L7.90270877,20.7184842 C7.07856842,19.2919579 6.64516491,17.6734316 6.64628772,16.015607 C6.64853333,10.8276772 10.8702877,6.60760702 16.0576561,6.60760702 C18.5749895,6.60872982 20.9379368,7.58837895 22.7147789,9.36690526 C24.4916211,11.1448702 25.469586,13.5089404 25.4684641,16.0229053 C25.4667789,21.2102737 21.2439018,25.4309053 16.0576561,25.4309053 M15.7241825,0.551747368 C7.04095439,0.551747368 -0.000168421053,7.59287018 -0.000168421053,16.2755368 C-0.000168421053,24.9587649 7.04095439,31.9998877 15.7241825,31.9998877 C24.4074105,31.9998877 31.4485333,24.9587649 31.4485333,16.2755368 C31.4485333,7.59287018 24.4074105,0.551747368 15.7241825,0.551747368" id="Fill-7" fill="#FFFFFF" mask="url(#mask-2)"></path>
                            </g>
                            <path d="M20.6615018,19.3776842 C20.4655719,19.9272982 19.5263439,20.4280702 19.074414,20.4954386 C18.6690807,20.5566316 18.1565193,20.5813333 17.5934316,20.4022456 C17.2515368,20.2944561 16.8136421,20.149614 16.2522386,19.9070877 C13.8937825,18.8892632 12.3532912,16.5145263 12.2353965,16.3578947 C12.1180632,16.2007018 11.2753965,15.0829474 11.2753965,13.9258947 C11.2753965,12.7688421 11.8828351,12.2001404 12.098414,11.9649123 C12.313993,11.7291228 12.5688702,11.6707368 12.7255018,11.6707368 C12.8821333,11.6707368 13.0393263,11.6718596 13.1763088,11.6791579 C13.3205895,11.6858947 13.5148351,11.6235789 13.7051509,12.0822456 C13.9010807,12.5532632 14.3715368,13.7103158 14.4299228,13.8276491 C14.4888702,13.9455439 14.5281684,14.0825263 14.4501333,14.2397193 C14.3715368,14.3963509 14.1110456,14.7348772 13.8623439,15.0436491 C13.7579228,15.1727719 13.6215018,15.2878596 13.7590456,15.5236491 C13.8960281,15.7588772 14.3681684,16.5285614 15.0671158,17.1517193 C15.9653614,17.9528421 16.7232561,18.2009825 16.9579228,18.3188772 C17.1931509,18.4362105 17.3301333,18.4165614 17.4676772,18.2599298 C17.6046596,18.1027368 18.0554667,17.5733333 18.2120982,17.3381053 C18.3687298,17.1028772 18.5259228,17.1421754 18.7415018,17.2202105 C18.9565193,17.298807 20.1124491,17.8680702 20.3476772,17.9854035 C20.5829053,18.1027368 20.7400982,18.1616842 20.7984842,18.2599298 C20.8574316,18.3581754 20.8574316,18.8286316 20.6615018,19.3776842 M16.0608,8.19677193 C11.7458526,8.19677193 8.2370807,11.7044211 8.23483452,16.016 C8.23427368,17.493614 8.64802807,18.9324912 9.43118596,20.1771228 L9.61701053,20.4729825 L8.82655439,23.3591579 L11.7868351,22.5821754 L12.0731509,22.7517193 C13.273993,23.4641404 14.6505544,23.8414035 16.0540632,23.8419649 L16.0574316,23.8419649 C20.3690105,23.8419649 23.8777825,20.3337544 23.879467,16.0221754 C23.8800281,13.9326316 23.0676772,11.9677193 21.5906246,10.4901053 C20.1135719,9.01192982 18.1497825,8.19733333 16.0608,8.19677193" id="Fill-10" fill="#FFFFFF"></path>
                        </g>
                    </g>
                </g>
            </g>
        </g>
    </g>
</svg>