<?xml version="1.0" encoding="UTF-8"?>
<svg width="32px" height="32px" viewBox="0 0 32 32" version="1.1" xmlns="http://www.w3.org/2000/svg" xmlns:xlink="http://www.w3.org/1999/xlink">
    <title>6F286CCE-05AD-4D68-93A1-C8556B00F630@1.5x</title>
    <g id="▫️-Simular" stroke="none" stroke-width="1" fill="none" fill-rule="evenodd">
        <g id="N_Simular_Desktop" transform="translate(-947.000000, -1823.000000)" fill="#FFFFFF">
            <g id="Footer/Desktop/Default" transform="translate(-1.000000, 1669.000000)">
                <g id="Group-3" transform="translate(944.000000, 124.000000)">
                    <g id="Group-2" transform="translate(4.000000, 30.000000)">
                        <path d="M18.7343158,15.724407 C18.7343158,17.3867228 17.3869474,18.7340912 15.7246316,18.7340912 C14.0623158,18.7340912 12.7149474,17.3867228 12.7149474,15.724407 C12.7149474,14.0620912 14.0623158,12.7147228 15.7246316,12.7147228 C17.3869474,12.7147228 18.7343158,14.0620912 18.7343158,15.724407" id="Fill-1"></path>
                        <path d="M20.544393,11.9881544 C19.9459368,11.9881544 19.4603228,11.5031018 19.4603228,10.9046456 C19.4603228,10.3061895 19.9459368,9.82113684 20.544393,9.82113684 C21.1422877,9.82113684 21.6279018,10.3061895 21.6279018,10.9046456 C21.6279018,11.5031018 21.1422877,11.9881544 20.544393,11.9881544 M15.7247439,20.3609263 C13.1636211,20.3609263 11.0875509,18.2854175 11.0875509,15.7242947 C11.0875509,13.1637333 13.1636211,11.0876632 15.7247439,11.0876632 C18.2853053,11.0876632 20.360814,13.1637333 20.360814,15.7242947 C20.360814,18.2854175 18.2853053,20.3609263 15.7247439,20.3609263 M22.7630596,10.3993825 C22.6182175,10.0075228 22.3874807,9.65271579 22.0876912,9.36134737 C21.7963228,9.06155789 21.4420772,8.83025965 21.0490947,8.68597895 C20.7313404,8.56190877 20.2530246,8.41538246 19.3733053,8.3749614 C18.4206035,8.33173333 18.1354105,8.32218947 15.7247439,8.32218947 C13.3135158,8.32218947 13.0277614,8.33117193 12.0761825,8.3749614 C11.1953404,8.41538246 10.717586,8.56190877 10.3992702,8.68597895 C10.0068491,8.83025965 9.65260351,9.06155789 9.36123509,9.36134737 C9.06144561,9.65271579 8.83070877,10.0069614 8.68530526,10.3993825 C8.56179649,10.7176982 8.41527018,11.1954526 8.37484912,12.0762947 C8.33162105,13.0284351 8.32207719,13.3136281 8.32207719,15.7248561 C8.32207719,18.1355228 8.33162105,18.4212772 8.37484912,19.3734175 C8.41527018,20.2536982 8.56179649,20.7314526 8.68530526,21.0497684 C8.83070877,21.4421895 9.06088421,21.7969965 9.36123509,22.0878035 C9.65260351,22.387593 10.0068491,22.6188912 10.3992702,22.7631719 C10.717586,22.8872421 11.1953404,23.0343298 12.0761825,23.0741895 C13.0277614,23.1174175 13.3135158,23.1269614 15.7241825,23.1269614 C18.1354105,23.1269614 18.4211649,23.1174175 19.3727439,23.0741895 C20.2530246,23.0343298 20.7313404,22.8872421 21.0490947,22.7631719 C21.8373053,22.4594526 22.4593404,21.8374175 22.7630596,21.0497684 C22.8865684,20.7314526 23.0342175,20.2536982 23.0740772,19.3734175 C23.1173053,18.4212772 23.1268491,18.1355228 23.1268491,15.7248561 C23.1268491,13.3136281 23.1173053,13.0284351 23.0740772,12.0762947 C23.0342175,11.1954526 22.8871298,10.7176982 22.7630596,10.3993825" id="Fill-3"></path>
                        <path d="M24.6989474,19.4470175 C24.6557193,20.4081404 24.5024561,21.0644211 24.2795789,21.6387368 C23.8102456,22.8513684 22.8519298,23.8102456 21.6387368,24.2790175 C21.0644211,24.5024561 20.4081404,24.6551579 19.4475789,24.6989474 C18.4842105,24.7432982 18.1765614,24.7534035 15.7249123,24.7534035 C13.2721404,24.7534035 12.9650526,24.7432982 12.0016842,24.6989474 C11.0411228,24.6551579 10.3842807,24.5024561 9.80996491,24.2790175 C9.20757895,24.0527719 8.66189474,23.6974035 8.21108772,23.2381754 C7.75185965,22.786807 7.39649123,22.2416842 7.16968421,21.6387368 C6.94624561,21.0649825 6.79354386,20.4081404 6.74975439,19.4470175 C6.70540351,18.4842105 6.69529825,18.1765614 6.69529825,15.7243509 C6.69529825,13.2721404 6.70540351,12.9650526 6.74975439,12.0016842 C6.79354386,11.0405614 6.94568421,10.3842807 7.16912281,9.80996491 C7.39592982,9.20757895 7.75185965,8.66189474 8.21108772,8.21108772 C8.66189474,7.75129825 9.20757895,7.39592982 9.80996491,7.16912281 C10.3842807,6.94624561 11.0405614,6.79354386 12.0016842,6.74975439 C12.9650526,6.70596491 13.2721404,6.69529825 15.7243509,6.69529825 C18.1765614,6.69529825 18.4842105,6.70596491 19.4470175,6.74975439 C20.4081404,6.79354386 21.0644211,6.94624561 21.6387368,7.16912281 C22.2411228,7.39592982 22.7873684,7.75129825 23.2381754,8.21108772 C23.6974035,8.66189474 24.0533333,9.20757895 24.2795789,9.80996491 C24.5024561,10.3842807 24.6557193,11.0405614 24.6995088,12.0016842 C24.7432982,12.9650526 24.7539649,13.2721404 24.7539649,15.7243509 C24.7539649,18.1765614 24.7432982,18.4842105 24.6989474,19.4470175 M15.7243509,-7.9780237e-15 C7.04168421,-7.9780237e-15 9.97252962e-15,7.04168421 9.97252962e-15,15.7243509 C9.97252962e-15,24.4075789 7.04168421,31.4487018 15.7243509,31.4487018 C24.4070175,31.4487018 31.4487018,24.4075789 31.4487018,15.7243509 C31.4487018,7.04168421 24.4070175,-7.9780237e-15 15.7243509,-7.9780237e-15" id="Fill-5"></path>
                    </g>
                </g>
            </g>
        </g>
    </g>
</svg>